<?xml version="1.0" encoding="utf-8"?>
<!-- Generator: Adobe Illustrator 23.1.0, SVG Export Plug-In . SVG Version: 6.00 Build 0)  -->
<svg version="1.1" xmlns="http://www.w3.org/2000/svg" xmlns:xlink="http://www.w3.org/1999/xlink" x="0px" y="0px"
	 viewBox="0 0 100 100" style="enable-background:new 0 0 100 100;" xml:space="preserve">
<style type="text/css">
	.st0{display:none;}
	.st1{display:inline;}
	.st2{fill:none;stroke:#000000;stroke-width:4.3246;stroke-linecap:round;stroke-linejoin:round;stroke-miterlimit:10;}
	.st3{fill:#0E70AB;stroke:#000000;stroke-width:4.3246;stroke-linecap:round;stroke-linejoin:round;stroke-miterlimit:10;}
	.st4{fill:#0E70AB;}
	.st5{fill:#0E70AB;stroke:#040000;stroke-width:3.81;stroke-linecap:round;stroke-linejoin:round;stroke-miterlimit:10;}
	.st6{fill:none;stroke:#040000;stroke-width:3.81;stroke-linecap:round;stroke-linejoin:round;stroke-miterlimit:10;}
	.st7{fill:none;stroke:#000000;stroke-width:4.572;stroke-linecap:round;stroke-linejoin:round;stroke-miterlimit:10;}
	.st8{fill:none;stroke:#000000;stroke-width:3.1241;stroke-linecap:round;stroke-linejoin:round;stroke-miterlimit:10;}
	.st9{fill:#0E70AB;stroke:#000000;stroke-width:3.1241;stroke-linecap:round;stroke-linejoin:round;stroke-miterlimit:10;}
	.st10{fill:none;stroke:#0E70AB;stroke-width:3.1241;stroke-linecap:round;stroke-linejoin:round;stroke-miterlimit:10;}
</style>
<g id="Layer_1" class="st0">
	<g class="st1">
		<g>
			<path class="st2" d="M93.64,30.74c-1.18,0.43-2.59,0.84-4.16,1.39c-4.15,1.44-5.07-1.33-5.36-2.66c-0.29-1.33,2.09-1.71,3.23-2
				c0.51-0.13,2.06-0.97,3.62-1.87c-0.89-1.49-1.86-2.92-2.91-4.3c-0.06,0-3.13-0.22-7.27-2.67c-4.18-2.47-5.7-0.38-6.46,0
				c-0.76,0.38-3.23,2.85-3.8,4.94c-0.57,2.09,1.71,7.03,0,7.41c-1.71,0.38-4.94-1.33-5.89-4.75c-0.95-3.42-2.47-1.52-4.56,1.14
				c-2.09,2.66,0,4.75,0,7.6c0,2.85-3.61,3.99-3.61,3.99s-4.37,0.57-6.27,1.9c-1.9,1.33-2.47,5.32-1.52,6.08
				c0.95,0.76,2.62,1.68,2.24,3.96c-0.38,2.28,0.26,3.95-1.26,5.85c-1.52,1.9-5.88,2.4-5.92,0.07c-0.05-2.22-0.57-5.51-1.52-5.51
				c-0.95,0-3.23-1.9-2.66-3.99c0.57-2.09-5.13-5.51-7.41,1.14c-2.28,6.65,0,6.46,1.33,11.79c1.33,5.32-1.33,7.03-2.66,7.6
				c-1.33,0.57-4.18,0-4.18,3.42c-0.57,4.94-3.04,6.27-5.7,7.22c-2.66,0.95-3.8-6.08-4.75-10.46c-0.95-4.37-2.85-4.75-4.37-6.08
				c-1.52-1.33-0.38-4.56-2.09-8.55C8.75,51.21,5.47,49,2.74,47.47C2.69,48.31,2.67,49.15,2.67,50c0,23.37,16.87,42.78,39.1,46.76
				l0.06-1.24c0,0-0.1-3.9,2.19-4.66c2.28-0.76,3.9,0.48,4.47,2.33c0.5,1.62,1.8,1.75,1.35,4.32c0.12,0,0.24,0.01,0.36,0.01
				c26.25,0,47.52-21.28,47.52-47.52C97.71,43.14,96.25,36.63,93.64,30.74z M37.45,82.6c-1.52,0,0-6.18,0-6.18
				c1.33-2.57,5.39,0.63,5.3,2.9C42.66,81.6,38.69,82.6,37.45,82.6z M67.74,53.9c0.41,1.08,0.04,3.37-1.1,5.38
				c-0.11,0.19-2.42,2.51-2.58,2.65c-0.95,0.82-2.69,1.56-5.04,3.51c-2.57,2.14-5.67,3.95-7.89,1.66c-1.62-1.66,1.05-3.66,2.76-4.51
				c1.71-0.86,6.13-5.7,6.99-6.7c0.86-1-1.43-1.14,0.57-4.42c2-3.28,1.28-4.56,0-5.7c-0.29-0.25-0.44-0.55-0.52-0.86
				c-0.31-1.28,1.94-3.81,3.13-3.26c3.47,1.59,4.82,5.89,4.82,7.11C68.88,49.76,67.31,52.76,67.74,53.9z"/>
			<path class="st3" d="M9.7,53.42c1.71,3.99,0.57,7.22,2.09,8.55c1.52,1.33,3.42,1.71,4.37,6.08c0.95,4.37,2.09,11.41,4.75,10.46
				c2.66-0.95,5.13-2.28,5.7-7.22c0-3.42,2.85-2.85,4.18-3.42c1.33-0.57,3.99-2.28,2.66-7.6c-1.33-5.32-3.61-5.13-1.33-11.79
				c2.28-6.65,7.98-3.23,7.41-1.14c-0.57,2.09,1.71,3.99,2.66,3.99c0.95,0,1.48,3.29,1.52,5.51c0.05,2.33,4.4,1.83,5.92-0.07
				c1.52-1.9,0.88-3.57,1.26-5.85c0.38-2.28-1.29-3.2-2.24-3.96c-0.95-0.76-0.38-4.75,1.52-6.08c1.9-1.33,6.27-1.9,6.27-1.9
				s3.61-1.14,3.61-3.99c0-2.85-2.09-4.94,0-7.6c2.09-2.66,3.61-4.56,4.56-1.14c0.95,3.42,4.18,5.13,5.89,4.75
				c1.71-0.38-0.57-5.32,0-7.41c0.57-2.09,3.04-4.56,3.8-4.94c0.76-0.38,2.28-2.47,6.46,0c4.14,2.45,7.21,2.66,7.27,2.67
				c-4.07-5.36-9.25-9.84-15.2-13.07c-0.57,1.48-1.03,2.69-1.2,3.18c-0.57,1.71-3.04,2.85-7.98,3.99c-4.94,1.14-6.65,1.52-8.74-1.14
				s-5.89-2.85-7.6-2.85c-1.71,0-3.8-1.14-4.94-3.99c-0.41-1.03-1.6-2.39-2.94-3.71C19.18,8.39,3.86,26.04,2.74,47.47
				C5.47,49,8.75,51.21,9.7,53.42z"/>
			<path class="st2" d="M39.46,3.71c1.34,1.32,2.53,2.68,2.94,3.71c1.14,2.85,3.23,3.99,4.94,3.99c1.71,0,5.51,0.19,7.6,2.85
				s3.8,2.28,8.74,1.14c4.94-1.14,7.41-2.28,7.98-3.99c0.16-0.49,0.62-1.7,1.2-3.18C66.13,4.56,58.4,2.48,50.19,2.48
				C46.5,2.48,42.91,2.91,39.46,3.71z"/>
			<path class="st3" d="M64.07,41.65c-1.19-0.55-3.44,1.99-3.13,3.26c0.07,0.31,0.23,0.6,0.52,0.86c1.28,1.14,2,2.42,0,5.7
				c-2,3.28,0.29,3.42-0.57,4.42c-0.86,1-5.27,5.85-6.99,6.7c-1.71,0.86-4.37,2.85-2.76,4.51c2.22,2.29,5.32,0.48,7.89-1.66
				c2.34-1.95,4.08-2.69,5.04-3.51c0.16-0.14,2.47-2.46,2.58-2.65c1.14-2.01,1.5-4.3,1.1-5.38c-0.43-1.14,1.14-4.14,1.14-5.14
				C68.88,47.55,67.53,43.25,64.07,41.65z"/>
			<path class="st3" d="M37.45,76.42c0,0-1.52,6.18,0,6.18c1.24,0,5.2-1.01,5.3-3.28C42.85,77.05,38.78,73.86,37.45,76.42z"/>
			<path class="st3" d="M48.48,93.2c-0.57-1.85-2.19-3.09-4.47-2.33c-2.28,0.76-2.19,4.66-2.19,4.66l-0.06,1.24
				c2.62,0.47,5.31,0.73,8.06,0.75C50.28,94.95,48.98,94.82,48.48,93.2z"/>
			<path class="st3" d="M84.12,29.47c0.29,1.33,1.21,4.1,5.36,2.66c1.57-0.55,2.98-0.96,4.16-1.39c-0.79-1.77-1.67-3.49-2.66-5.14
				c-1.56,0.9-3.11,1.75-3.62,1.87C86.21,27.76,83.84,28.14,84.12,29.47z"/>
		</g>
	</g>
</g>
<g id="Layer_3">
	<g>
		<rect x="46.08" y="14.85" class="st4" width="7.34" height="82.93"/>
		<g>
			<path class="st5" d="M48.75,97.78H34.74c0,0-2.71-2.86,6.18-11c3.32,0,5.12,0,5.12,0V20.31"/>
			<path class="st5" d="M48.06,97.78h16.3c0,0,2.71-2.86-6.18-11c-3.32,0-5.12,0-5.12,0V20.31"/>
		</g>
		<path class="st5" d="M53.09,20.31h-7.08c-1.83,0-3.32-1.48-3.32-3.32v-3.84c0-1.83,1.48-10.94,3.32-10.94h7.08
			c1.83,0,3.32,9.1,3.32,10.94v3.84C56.41,18.82,54.93,20.31,53.09,20.31z"/>
		<line class="st6" x1="46.04" y1="24.23" x2="12.49" y2="24.23"/>
		<path class="st6" d="M14.75,24.23c0,1.25-1.01,2.26-2.26,2.26c-1.25,0-2.26-1.01-2.26-2.26c0-1.25,1.01-2.26,2.26-2.26
			C13.74,21.96,14.75,22.98,14.75,24.23z"/>
		<line class="st6" x1="2.7" y1="43.82" x2="12.49" y2="24.23"/>
		<line class="st6" x1="22.29" y1="43.82" x2="12.49" y2="24.23"/>
		<line class="st6" x1="53.96" y1="24.23" x2="87.51" y2="24.23"/>
		<path class="st6" d="M85.25,24.23c0,1.25,1.01,2.26,2.26,2.26c1.25,0,2.26-1.01,2.26-2.26c0-1.25-1.01-2.26-2.26-2.26
			C86.26,21.96,85.25,22.98,85.25,24.23z"/>
		<line class="st6" x1="97.3" y1="43.82" x2="87.51" y2="24.23"/>
		<g>
			<path class="st7" d="M13.38,43.82H2.7c0,0,0.72,10.4,10.69,10.4"/>
			<path class="st7" d="M11.6,43.82h10.69c0,0-0.72,10.4-10.69,10.4"/>
			<path class="st7" d="M86.62,43.82H97.3c0,0-0.72,10.4-10.69,10.4"/>
			<path class="st7" d="M88.4,43.82H77.71c0,0,0.72,10.4,10.69,10.4"/>
		</g>
		<line class="st6" x1="77.71" y1="43.82" x2="87.51" y2="24.23"/>
	</g>
</g>
<g id="Layer_2" class="st0">
	<g class="st1">
		<path class="st8" d="M73.37,48.4c0-11.53-9.9-20.87-22.11-20.87S29.15,36.87,29.15,48.4c0,4.21,1.32,8.12,3.59,11.4
			c0.58,0.84,1.24,1.64,1.94,2.39h-0.01c7.99,9.43,8.9,18.04,8.9,18.04h7.69h7.69c0,0,0.91-8.61,8.9-18.04h0
			C71.28,58.51,73.37,53.69,73.37,48.4z"/>
		<path class="st8" d="M56.05,34.88c-1.66-0.62-3.47-0.97-5.36-0.97c-8.02,0-14.52,6.13-14.52,13.7c0,0.38,0.02,0.76,0.05,1.13"/>
		<g>
			<g>
				<polyline class="st8" points="43.34,62.49 45.67,64.89 47.48,66.75 48.83,77.96 				"/>
				<line class="st8" x1="51.62" y1="66.38" x2="47.41" y2="66.44"/>
				<polyline class="st8" points="43.34,62.49 45.67,64.89 47.48,66.75 48.83,77.96 				"/>
				<line class="st8" x1="51.62" y1="66.38" x2="47.41" y2="66.44"/>
			</g>
			<g>
				<polyline class="st8" points="59.18,62.24 56.96,64.71 55.23,66.63 54.34,77.87 				"/>
				<line class="st8" x1="51.07" y1="66.38" x2="55.28" y2="66.32"/>
				<polyline class="st8" points="59.18,62.24 56.96,64.71 55.23,66.63 54.34,77.87 				"/>
				<line class="st8" x1="51.07" y1="66.38" x2="55.28" y2="66.32"/>
			</g>
		</g>
		<rect x="43.64" y="84.26" class="st9" width="15.24" height="5.2"/>
		<path class="st9" d="M55.76,98h-8.99c-1.37,0-2.49-1.02-2.49-2.27v-1.04c0-1.25,1.12-1.22,2.49-1.22h8.99
			c1.37,0,2.49-0.02,2.49,1.22v1.04C58.25,96.98,57.13,98,55.76,98z"/>
		<line class="st10" x1="51.21" y1="2.12" x2="51.21" y2="16.75"/>
		<g>
			<line class="st10" x1="28.28" y1="6.58" x2="37.47" y2="20.23"/>
			<line class="st10" x1="14.97" y1="23.27" x2="27.71" y2="31.78"/>
		</g>
		<g>
			<line class="st10" x1="73.92" y1="6.58" x2="64.74" y2="20.23"/>
			<line class="st10" x1="87.23" y1="23.27" x2="74.5" y2="31.78"/>
		</g>
	</g>
</g>
</svg>
