<?xml version="1.0" encoding="utf-8"?>
<!-- Generator: Adobe Illustrator 23.1.0, SVG Export Plug-In . SVG Version: 6.00 Build 0)  -->
<svg version="1.1" id="Layer_1" xmlns="http://www.w3.org/2000/svg" xmlns:xlink="http://www.w3.org/1999/xlink" x="0px" y="0px"
	 viewBox="0 0 100 100" style="enable-background:new 0 0 100 100;" xml:space="preserve">
<style type="text/css">
	.st0{display:none;}
	.st1{display:inline;}
	.st2{fill:none;stroke:#000000;stroke-width:4.3246;stroke-linecap:round;stroke-linejoin:round;stroke-miterlimit:10;}
	.st3{fill:#0E70AB;stroke:#000000;stroke-width:4.3246;stroke-linecap:round;stroke-linejoin:round;stroke-miterlimit:10;}
	.st4{fill:none;stroke:#000000;stroke-width:3.1241;stroke-linecap:round;stroke-linejoin:round;stroke-miterlimit:10;}
	.st5{fill:#0E70AB;stroke:#000000;stroke-width:3.1241;stroke-linecap:round;stroke-linejoin:round;stroke-miterlimit:10;}
	.st6{fill:none;stroke:#0E70AB;stroke-width:3.1241;stroke-linecap:round;stroke-linejoin:round;stroke-miterlimit:10;}
	.st7{fill:#0B71AA;stroke:#000000;stroke-width:4.3725;stroke-linecap:round;stroke-linejoin:round;stroke-miterlimit:10;}
	.st8{fill:none;stroke:#000000;stroke-width:4.34;stroke-linecap:round;stroke-linejoin:round;stroke-miterlimit:10;}
	.st9{fill:#0B71AA;stroke:#000000;stroke-width:4.34;stroke-linecap:round;stroke-linejoin:round;stroke-miterlimit:10;}
</style>
<g class="st0">
	<g class="st1">
		<g>
			<path class="st2" d="M93.6,30.7c-1.2,0.4-2.6,0.8-4.2,1.4c-4.2,1.4-5.1-1.3-5.4-2.7s2.1-1.7,3.2-2c0.5-0.1,2.1-1,3.6-1.9
				c-0.9-1.5-1.9-2.9-2.9-4.3c-0.1,0-3.1-0.2-7.3-2.7c-4.2-2.5-5.7-0.4-6.5,0s-3.2,2.9-3.8,4.9s1.7,7,0,7.4s-4.9-1.3-5.9-4.8
				c-1-3.4-2.5-1.5-4.6,1.1s0,4.8,0,7.6s-3.6,4-3.6,4s-4.4,0.6-6.3,1.9s-2.5,5.3-1.5,6.1c1,0.8,2.6,1.7,2.2,4
				c-0.4,2.3,0.3,4-1.3,5.8c-1.5,1.9-5.9,2.4-5.9,0.1c0-2.2-0.6-5.5-1.5-5.5s-3.2-1.9-2.7-4s-5.1-5.5-7.4,1.1s0,6.5,1.3,11.8
				c1.3,5.3-1.3,7-2.7,7.6c-1.3,0.6-4.2,0-4.2,3.4c-0.6,4.9-3,6.3-5.7,7.2c-2.7,0.9-3.8-6.1-4.8-10.5c-0.9-4.4-2.9-4.8-4.4-6.1
				s-0.4-4.6-2.1-8.5c-1-2.2-4.3-4.4-7-5.9c0,0.8-0.1,1.7-0.1,2.5c0,23.4,16.9,42.8,39.1,46.8l0.1-1.2c0,0-0.1-3.9,2.2-4.7
				c2.3-0.8,3.9,0.5,4.5,2.3c0.5,1.6,1.8,1.8,1.3,4.3c0.1,0,0.2,0,0.4,0c26.3,0,47.5-21.3,47.5-47.5C97.7,43.1,96.3,36.6,93.6,30.7z
				 M37.5,82.6c-1.5,0,0-6.2,0-6.2c1.3-2.6,5.4,0.6,5.3,2.9C42.7,81.6,38.7,82.6,37.5,82.6z M67.7,53.9c0.4,1.1,0,3.4-1.1,5.4
				c-0.1,0.2-2.4,2.5-2.6,2.7c-1,0.8-2.7,1.6-5,3.5c-2.6,2.1-5.7,3.9-7.9,1.7c-1.6-1.7,1-3.7,2.8-4.5c1.7-0.9,6.1-5.7,7-6.7
				s-1.4-1.1,0.6-4.4c2-3.3,1.3-4.6,0-5.7c-0.3-0.3-0.4-0.5-0.5-0.9c-0.3-1.3,1.9-3.8,3.1-3.3c3.5,1.6,4.8,5.9,4.8,7.1
				C68.9,49.8,67.3,52.8,67.7,53.9z"/>
			<path class="st3" d="M9.7,53.4c1.7,4,0.6,7.2,2.1,8.5c1.5,1.3,3.4,1.7,4.4,6.1c1,4.4,2.1,11.4,4.8,10.5s5.1-2.3,5.7-7.2
				c0-3.4,2.9-2.8,4.2-3.4c1.3-0.6,4-2.3,2.7-7.6s-3.6-5.1-1.3-11.8c2.3-6.7,8-3.2,7.4-1.1s1.7,4,2.7,4s1.5,3.3,1.5,5.5
				c0,2.3,4.4,1.8,5.9-0.1c1.5-1.9,0.9-3.6,1.3-5.8c0.4-2.3-1.3-3.2-2.2-4s-0.4-4.8,1.5-6.1s6.3-1.9,6.3-1.9s3.6-1.1,3.6-4
				c0-2.8-2.1-4.9,0-7.6s3.6-4.6,4.6-1.1s4.2,5.1,5.9,4.8s-0.6-5.3,0-7.4s3-4.6,3.8-4.9c0.8-0.4,2.3-2.5,6.5,0
				c4.1,2.5,7.2,2.7,7.3,2.7C84,16,78.8,11.5,72.8,8.2c-0.6,1.5-1,2.7-1.2,3.2c-0.6,1.7-3,2.9-8,4s-6.7,1.5-8.7-1.1
				s-5.9-2.8-7.6-2.8s-3.8-1.1-4.9-4c-0.4-1-1.6-2.4-2.9-3.7C19.2,8.4,3.9,26,2.7,47.5C5.5,49,8.8,51.2,9.7,53.4z"/>
			<path class="st2" d="M39.5,3.7C40.8,5,42,6.4,42.4,7.4c1.1,2.9,3.2,4,4.9,4s5.5,0.2,7.6,2.9s3.8,2.3,8.7,1.1s7.4-2.3,8-4
				c0.2-0.5,0.6-1.7,1.2-3.2c-6.7-3.7-14.5-5.8-22.7-5.8C46.5,2.5,42.9,2.9,39.5,3.7z"/>
			<path class="st3" d="M64.1,41.7c-1.2-0.5-3.4,2-3.1,3.3c0.1,0.3,0.2,0.6,0.5,0.9c1.3,1.1,2,2.4,0,5.7s0.3,3.4-0.6,4.4
				s-5.3,5.8-7,6.7c-1.7,0.9-4.4,2.9-2.8,4.5c2.2,2.3,5.3,0.5,7.9-1.7c2.3-2,4.1-2.7,5-3.5c0.2-0.1,2.5-2.5,2.6-2.7
				c1.1-2,1.5-4.3,1.1-5.4c-0.4-1.1,1.1-4.1,1.1-5.1C68.9,47.5,67.5,43.3,64.1,41.7z"/>
			<path class="st3" d="M37.5,76.4c0,0-1.5,6.2,0,6.2c1.2,0,5.2-1,5.3-3.3S38.8,73.9,37.5,76.4z"/>
			<path class="st3" d="M48.5,93.2c-0.6-1.8-2.2-3.1-4.5-2.3c-2.3,0.8-2.2,4.7-2.2,4.7l-0.1,1.2c2.6,0.5,5.3,0.7,8.1,0.8
				C50.3,94.9,49,94.8,48.5,93.2z"/>
			<path class="st3" d="M84.1,29.5c0.3,1.3,1.2,4.1,5.4,2.7c1.6-0.5,3-1,4.2-1.4C92.8,29,92,27.3,91,25.6c-1.6,0.9-3.1,1.8-3.6,1.9
				C86.2,27.8,83.8,28.1,84.1,29.5z"/>
		</g>
	</g>
</g>
<g class="st0">
	<g class="st1">
		<path class="st4" d="M73.4,48.4c0-11.5-9.9-20.9-22.1-20.9s-22.1,9.3-22.1,20.9c0,4.2,1.3,8.1,3.6,11.4c0.6,0.8,1.2,1.6,1.9,2.4h0
			c8,9.4,8.9,18,8.9,18h7.7h7.7c0,0,0.9-8.6,8.9-18l0,0C71.3,58.5,73.4,53.7,73.4,48.4z"/>
		<path class="st4" d="M56,34.9c-1.7-0.6-3.5-1-5.4-1c-8,0-14.5,6.1-14.5,13.7c0,0.4,0,0.8,0,1.1"/>
		<g>
			<g>
				<polyline class="st4" points="43.3,62.5 45.7,64.9 47.5,66.8 48.8,78 				"/>
				<line class="st4" x1="51.6" y1="66.4" x2="47.4" y2="66.4"/>
				<polyline class="st4" points="43.3,62.5 45.7,64.9 47.5,66.8 48.8,78 				"/>
				<line class="st4" x1="51.6" y1="66.4" x2="47.4" y2="66.4"/>
			</g>
			<g>
				<polyline class="st4" points="59.2,62.2 57,64.7 55.2,66.6 54.3,77.9 				"/>
				<line class="st4" x1="51.1" y1="66.4" x2="55.3" y2="66.3"/>
				<polyline class="st4" points="59.2,62.2 57,64.7 55.2,66.6 54.3,77.9 				"/>
				<line class="st4" x1="51.1" y1="66.4" x2="55.3" y2="66.3"/>
			</g>
		</g>
		<rect x="43.6" y="84.3" class="st5" width="15.2" height="5.2"/>
		<path class="st5" d="M55.8,98h-9c-1.4,0-2.5-1-2.5-2.3v-1c0-1.3,1.1-1.2,2.5-1.2h9c1.4,0,2.5,0,2.5,1.2v1C58.3,97,57.1,98,55.8,98
			z"/>
		<line class="st6" x1="51.2" y1="2.1" x2="51.2" y2="16.8"/>
		<g>
			<line class="st6" x1="28.3" y1="6.6" x2="37.5" y2="20.2"/>
			<line class="st6" x1="15" y1="23.3" x2="27.7" y2="31.8"/>
		</g>
		<g>
			<line class="st6" x1="73.9" y1="6.6" x2="64.7" y2="20.2"/>
			<line class="st6" x1="87.2" y1="23.3" x2="74.5" y2="31.8"/>
		</g>
	</g>
</g>
<g>
	<path class="st7" d="M48.4,93.5c-0.6-1.9-2.2-3.1-4.5-2.4c-2.3,0.8-2.2,4.7-2.2,4.7l-0.1,1.2c2.6,0.5,5.4,0.7,8.2,0.8
		C50.2,95.2,48.9,95.1,48.4,93.5z"/>
	<g>
		<path class="st8" d="M93.7,30.8c-1.2,0.4-2.6,0.8-4.2,1.4c-4.2,1.4-5.1-1.3-5.4-2.7c-0.3-1.3,2.1-1.7,3.2-2c0.5-0.1,2.1-1,3.6-1.9
			c-0.9-1.5-1.9-2.9-2.9-4.3c-0.1,0-3.1-0.2-7.3-2.7c-4.2-2.5-5.7-0.4-6.5,0c-0.8,0.4-3.2,2.9-3.8,5c-0.6,2.1,1.7,7.1,0,7.4
			c-1.7,0.4-5-1.3-5.9-4.8c-1-3.4-2.5-1.5-4.6,1.1c-2.1,2.7,0,4.8,0,7.6c0,2.9-3.6,4-3.6,4S52,39.6,50.1,41
			c-1.9,1.3-2.5,5.3-1.5,6.1c1,0.8,2.6,1.7,2.2,4c-0.4,2.3,0.3,4-1.3,5.9s-5.9,2.4-5.9,0.1c0-2.2-0.6-5.5-1.5-5.5
			c-1,0-3.2-1.9-2.7-4c0.6-2.1-5.2-5.5-7.4,1.1c-2.3,6.7,0,6.5,1.3,11.8c1.3,5.3-1.3,7.1-2.7,7.6c-1.3,0.6-4.2,0-4.2,3.4
			c-0.6,5-3.1,6.3-5.7,7.2c-2.7,1-3.8-6.1-4.8-10.5c-1-4.4-2.9-4.8-4.4-6.1c-1.5-1.3-0.4-4.6-2.1-8.6c-1-2.2-4.2-4.4-7-6
			c0,0.8-0.1,1.7-0.1,2.5c0,23.5,16.9,42.9,39.2,46.9l0.1-1.2c0,0-0.1-3.9,2.2-4.7c2.3-0.8,3.9,0.5,4.5,2.3c0.5,1.6,1.8,1.8,1.4,4.3
			c0.1,0,0.2,0,0.4,0c26.3,0,47.7-21.4,47.7-47.7C97.8,43.2,96.3,36.7,93.7,30.8z M37.3,82.8c-1.5,0,0-6.2,0-6.2
			c1.3-2.6,5.4,0.6,5.3,2.9C42.6,81.8,38.6,82.8,37.3,82.8z M67.7,54c0.4,1.1,0,3.4-1.1,5.4c-0.1,0.2-2.4,2.5-2.6,2.7
			c-1,0.8-2.7,1.6-5.1,3.5c-2.6,2.1-5.7,4-7.9,1.7c-1.6-1.7,1-3.7,2.8-4.5c1.7-0.9,6.2-5.7,7-6.7c0.9-1-1.4-1.1,0.6-4.4
			c2-3.3,1.3-4.6,0-5.7c-0.3-0.3-0.4-0.6-0.5-0.9c-0.3-1.3,1.9-3.8,3.1-3.3c3.5,1.6,4.8,5.9,4.8,7.1C68.9,49.9,67.3,52.9,67.7,54z"
			/>
		<path class="st9" d="M9.5,53.6c1.7,4,0.6,7.2,2.1,8.6c1.5,1.3,3.4,1.7,4.4,6.1c1,4.4,2.1,11.4,4.8,10.5c2.7-1,5.2-2.3,5.7-7.2
			c0-3.4,2.9-2.9,4.2-3.4c1.3-0.6,4-2.3,2.7-7.6c-1.3-5.3-3.6-5.2-1.3-11.8c2.3-6.7,8-3.2,7.4-1.1c-0.6,2.1,1.7,4,2.7,4
			c1,0,1.5,3.3,1.5,5.5c0,2.3,4.4,1.8,5.9-0.1s0.9-3.6,1.3-5.9c0.4-2.3-1.3-3.2-2.2-4c-1-0.8-0.4-4.8,1.5-6.1
			c1.9-1.3,6.3-1.9,6.3-1.9s3.6-1.1,3.6-4c0-2.9-2.1-5,0-7.6c2.1-2.7,3.6-4.6,4.6-1.1c1,3.4,4.2,5.2,5.9,4.8c1.7-0.4-0.6-5.3,0-7.4
			c0.6-2.1,3.1-4.6,3.8-5c0.8-0.4,2.3-2.5,6.5,0c4.2,2.5,7.2,2.7,7.3,2.7c-4.1-5.4-9.3-9.9-15.3-13.1c-0.6,1.5-1,2.7-1.2,3.2
			c-0.6,1.7-3.1,2.9-8,4c-5,1.1-6.7,1.5-8.8-1.1c-2.1-2.7-5.9-2.9-7.6-2.9c-1.7,0-3.8-1.1-5-4c-0.4-1-1.6-2.4-2.9-3.7
			C19,8.4,3.6,26.1,2.5,47.6C5.2,49.1,8.5,51.3,9.5,53.6z"/>
		<path class="st8" d="M39.4,3.7c1.3,1.3,2.5,2.7,2.9,3.7c1.1,2.9,3.2,4,5,4c1.7,0,5.5,0.2,7.6,2.9c2.1,2.7,3.8,2.3,8.8,1.1
			c5-1.1,7.4-2.3,8-4c0.2-0.5,0.6-1.7,1.2-3.2c-6.8-3.7-14.5-5.8-22.8-5.8C46.4,2.4,42.8,2.9,39.4,3.7z"/>
		<path class="st9" d="M64,41.7c-1.2-0.6-3.5,2-3.1,3.3c0.1,0.3,0.2,0.6,0.5,0.9c1.3,1.1,2,2.4,0,5.7c-2,3.3,0.3,3.4-0.6,4.4
			c-0.9,1-5.3,5.9-7,6.7c-1.7,0.9-4.4,2.9-2.8,4.5c2.2,2.3,5.3,0.5,7.9-1.7c2.4-2,4.1-2.7,5.1-3.5c0.2-0.1,2.5-2.5,2.6-2.7
			c1.1-2,1.5-4.3,1.1-5.4c-0.4-1.1,1.1-4.2,1.1-5.2C68.9,47.7,67.5,43.3,64,41.7z"/>
		<path class="st9" d="M37.3,76.6c0,0-1.5,6.2,0,6.2c1.2,0,5.2-1,5.3-3.3C42.8,77.3,38.7,74.1,37.3,76.6z"/>
		<path class="st9" d="M84.2,29.5c0.3,1.3,1.2,4.1,5.4,2.7c1.6-0.5,3-1,4.2-1.4C92.9,29,92,27.3,91,25.6c-1.6,0.9-3.1,1.8-3.6,1.9
			C86.3,27.8,83.9,28.2,84.2,29.5z"/>
	</g>
</g>
</svg>
